<?xml version="1.0" encoding="UTF-8"?>
<svg width="1339px" height="991px" viewBox="0 0 1339 991" version="1.1" xmlns="http://www.w3.org/2000/svg" xmlns:xlink="http://www.w3.org/1999/xlink">
    <!-- Generator: Sketch 51.2 (57519) - http://www.bohemiancoding.com/sketch -->
    <title>Shape Copy</title>
    <desc>Created with Sketch.</desc>
    <defs></defs>
    <g id="Page-1" stroke="none" stroke-width="1" fill="none" fill-rule="evenodd">
        <g id="Shape-Copy" transform="translate(0.000000, 1.000000)" fill="#7DC8C7" fill-rule="nonzero" stroke="#979797">
            <path d="M1337.71532,693.782272 L1337.71532,0.211057 L4.4311672,0.211057 C-18.3812285,102.197001 60.1907953,200.131668 240.147239,294.015056 C279.461395,309.72881 317.540824,324.816739 354.385524,339.278843 C496.787293,395.947539 590.123062,440.696932 634.392832,473.527022 C700.797487,522.772157 712.311326,583.33177 695.859683,658.493876 C684.891921,708.601948 675.369934,753.505816 667.293723,793.205482 C650.722613,864.805986 651.340829,910.13551 669.148371,929.19405 C686.955912,948.25259 712.86349,963.22237 746.871105,974.1034 C808.499892,983.84673 849.479518,988.66954 869.809983,988.57182 C969.326735,988.09349 1005.45204,981.32003 1029.45977,981.32003 C1111.18048,970.74869 1283.82724,919.97614 1318.71517,823.533405 C1326.01048,805.571339 1332.34386,762.320961 1337.71532,693.782272 Z" id="Path-10"></path>
        </g>
    </g>
</svg>