<?xml version="1.0" encoding="UTF-8"?>
<svg width="1460px" height="1022px" viewBox="0 0 1460 1022" version="1.1" xmlns="http://www.w3.org/2000/svg" xmlns:xlink="http://www.w3.org/1999/xlink">
    <!-- Generator: Sketch 51.2 (57519) - http://www.bohemiancoding.com/sketch -->
    <title>s1</title>
    <desc>Created with Sketch.</desc>
    <defs></defs>
    <g id="s1" stroke="none" stroke-width="1" fill="none" fill-rule="evenodd">
        <path d="M1497,-10 L1497,-10 L163.849358,-10 C141.039247,91.9485678 219.603403,189.847343 399.541826,283.696325 C438.852045,299.40432 476.927661,314.486719 513.768672,328.943523 C656.156181,385.591451 749.482604,430.324444 793.747941,463.142502 C860.145946,512.36959 871.658632,572.907009 855.208637,648.041569 C844.241973,698.131277 834.720939,743.018689 826.645537,782.703806 C810.076086,854.278069 810.694241,899.590981 828.499999,918.642536 C846.305757,937.694091 872.210741,952.658385 906.21495,963.535427 C967.837566,973.275187 1008.81309,978.096229 1029.14152,977.998545 C1128.6483,977.52039 1164.76999,970.749413 1188.77532,970.749413 C1270.48784,960.181947 1443.11732,909.428004 1478.00175,813.020614 C1485.29633,795.065131 1491.62908,751.830603 1497,683.317033, -10 Z" id="1"  fill="#7DC8C7" fill-rule="nonzero"></path>
    </g>
</svg>