<?xml version="1.0" encoding="UTF-8"?>
<svg width="1460px" height="1022px" viewBox="0 0 1460 1022" version="1.1" xmlns="http://www.w3.org/2000/svg" xmlns:xlink="http://www.w3.org/1999/xlink">
    <!-- Generator: Sketch 51.2 (57519) - http://www.bohemiancoding.com/sketch -->
    <title>s2</title>
    <desc>Created with Sketch.</desc>
    <defs></defs>
    <g id="s2" stroke="none" stroke-width="1" fill="none" fill-rule="evenodd">
        <path d="M1497,-10 L163.849358,-10 C219.653137,102.581032 321.941881,165.491986 387.773556,207.657737 C427.083776,223.365732 477.473196,237.204958 526.006937,234.912985 C627.156488,241.973806 638.344078,311.905388 661.846957,341.849361 C717.494348,439.134255 755.728957,471.062758 781.700062,490.317581 C807.181286,509.20921 852.844682,520.832516 888.784765,532.306603 C944.445589,557.072808 969.536165,592.334749 974.428957,636.731561 C977.637313,663.25383 993.161626,741.830847 985.086224,781.515964 C988.680134,867.912917 1065.39624,849.754632 1092.37309,837.960425 C1167.40477,815.461225 1229.46632,744.459625 1259.25632,721.000333 C1343.24932,641.093015 1466.82228,682.417826 1490.8276,682.417826 C1490.5078,649.334349 1492.56527,418.528407 1497,-10 Z" id="1" fill="#7DC8C7" fill-rule="nonzero"></path>
    </g>
</svg>