<?xml version="1.0" encoding="UTF-8"?>
<svg width="1460px" height="1022px" viewBox="0 0 1460 1022" version="1.1" xmlns="http://www.w3.org/2000/svg" xmlns:xlink="http://www.w3.org/1999/xlink">
    <!-- Generator: Sketch 51.2 (57519) - http://www.bohemiancoding.com/sketch -->
    <title>s3</title>
    <desc>Created with Sketch.</desc>
    <defs></defs>
    <g id="s3" stroke="none" stroke-width="1" fill="none" fill-rule="evenodd">
        <path d="M1497,-10 L163.849358,-10 C257.688588,79.2138978 354.349111,138.786596 420.431668,172.424176 C459.741888,188.132171 466.436462,189.668649 513.325366,199.049187 C614.681023,227.466548 649.087245,308.889208 668.672114,338.911066 C696.219151,395.823917 706.340757,451.840592 699.036932,506.961093 C699.446256,586.689128 713.605971,654.801467 741.516078,711.298109 C807.569666,815.044873 915.717917,810.679329 953.729592,795.772152 C1005.73571,759.584183 1058.90755,766.534978 1107.43049,798.109912 C1161.43215,833.925866 1208.79384,889.100325 1246.33132,907.600513 C1322.31642,948.25147 1346.73854,911.314994 1383.71392,874.636692 C1447.01862,811.840593 1482.02988,694.656717 1497.18393,694.656717 C1496.86414,661.57324 1496.80282,426.687668 1497,-10 Z" id="1" fill="#7DC8C7" fill-rule="nonzero"></path>
    </g>
</svg>