<?xml version="1.0" encoding="UTF-8"?>
<svg width="1460px" height="1022px" viewBox="0 0 1460 1022" version="1.1" xmlns="http://www.w3.org/2000/svg" xmlns:xlink="http://www.w3.org/1999/xlink">
    <!-- Generator: Sketch 51.2 (57519) - http://www.bohemiancoding.com/sketch -->
    <title>s4</title>
    <desc>Created with Sketch.</desc>
    <defs></defs>
    <g id="s4" stroke="none" stroke-width="1" fill="none" fill-rule="evenodd">
        <path d="M1497,-10 L161.499559,-7.16322767 C284.260455,52.5248801 344.090312,86.5400037 407.320445,132.932774 C470.550579,179.325545 566.187753,280.429218 590.50041,338.285107 C623.750342,397.442355 641.956946,463.692334 645.120224,537.035044 C658.081231,636.871355 683.200614,708.351339 720.478372,751.474997 C806.900771,848.057641 919.81796,791.991787 953.713252,771.892134 C1049.55221,723.616123 1094.50333,697.150788 1202.07048,681.427672 C1235.76191,676.104601 1293.35996,678.826817 1345.72357,693.539386 C1446.19849,713.271701 1482.02988,603.818189 1497.18393,603.818189 C1496.86414,570.734713 1496.80282,366.12865 1497,-10 Z" id="1" fill="#7DC8C7" fill-rule="nonzero"></path>
    </g>
</svg>