<?xml version="1.0" encoding="UTF-8"?>
<svg width="1347px" height="1134px" viewBox="0 0 1347 1134" version="1.1" xmlns="http://www.w3.org/2000/svg" xmlns:xlink="http://www.w3.org/1999/xlink">
    <!-- Generator: Sketch 51.2 (57519) - http://www.bohemiancoding.com/sketch -->
    <title>Shape</title>
    <desc>Created with Sketch.</desc>
    <defs></defs>
    <g id="01_Initial-UI-Revision-Concept" stroke="none" stroke-width="1" fill="none" fill-rule="evenodd">
        <g id="tr_ons_pt_cimp_slv_4cp"></g>
        <g id="Artboard-2" transform="translate(-2671.000000, -2068.000000)">
            <g id="Shape" transform="translate(2671.000000, 2068.000000)">
                <path d="M706.857011,508.257378 C641.09197,752.252538 634.441632,914.299816 686.905997,994.39921 C739.370362,1074.4986 824.250511,1120.82156 941.546445,1133.36807 C1172.51517,1112.27791 1287.99953,1043.13232 1287.99953,925.931315 C1287.99953,808.730311 1196.76702,660.479453 1014.30199,481.178741 L706.857011,508.257378 Z" id="Path-12" stroke="#979797" fill="#D7217F"></path>
                <path d="M28.4738019,69.7775417 C-18.7319806,159.820729 -7.16488026,254.368806 63.175103,353.421772 C133.515086,452.474739 316.167883,505.552804 611.133492,512.655968 C916.327023,284.285368 949.569923,131.681095 710.862192,54.8431501 C472.154461,-21.9947951 244.691664,-17.0166646 28.4738019,69.7775417 Z" id="Path-11" fill="#D7217F"></path>
                <path d="M1345.71532,802.782272 L1345.71532,109.211057 L12.4311672,109.211057 C-10.3812285,211.197001 68.1907953,309.131668 248.147239,403.015056 C287.461395,418.72881 325.540824,433.816739 362.385524,448.278843 C504.787293,504.947539 598.123062,549.696932 642.392832,582.527022 C708.797487,631.772157 720.311326,692.33177 703.859683,767.493876 C692.891921,817.601948 683.369934,862.505816 675.293723,902.205482 C658.722613,973.805986 659.340829,1019.13551 677.148371,1038.19405 C694.955912,1057.25259 720.86349,1072.22237 754.871105,1083.1034 C816.499892,1092.84673 857.479518,1097.66954 877.809983,1097.57182 C977.326735,1097.09349 1013.45204,1090.32003 1037.45977,1090.32003 C1119.18048,1079.74869 1291.82724,1028.97614 1326.71517,932.533405 C1334.01048,914.571339 1340.34386,871.320961 1345.71532,802.782272 Z" id="Path-10" stroke="#979797" fill="#7DC8C7"></path>
            </g>
        </g>
    </g>
</svg>